<?xml version="1.0" encoding="utf-8"?>
<!-- Generator: Adobe Illustrator 21.0.0, SVG Export Plug-In . SVG Version: 6.00 Build 0)  -->
<svg version="1.1" id="图层_1" xmlns="http://www.w3.org/2000/svg" xmlns:xlink="http://www.w3.org/1999/xlink" x="0px" y="0px"
	 viewBox="0 0 67 55" style="enable-background:new 0 0 67 55;" xml:space="preserve">
<style type="text/css">
	.st0{fill:#67D2FC;}
	.st1{fill:#333333;}
</style>
<title>Group</title>
<desc>Created with Sketch.</desc>
<g id="Page-1">
	<g id="项_x2F6C_目浏览" transform="translate(-553.000000, -214.000000)">
		<g id="Group-8" transform="translate(0.000000, 65.000000)">
			<g id="Group-2" transform="translate(410.000000, 119.000000)">
				<g id="Group" transform="translate(144.000000, 31.000000)">
					<g>
						<path class="st0" d="M65,13.2V4.5C65,2,63.2,0,61,0H12C9.8,0,8,2,8,4.5v8.6c0,1.9,1,3.5,2.4,4.1C9,18,8,19.6,8,21.4v8.6
							c0,2.5,1.8,4.5,4,4.5H61c2.2,0,4-2,4-4.5v-8.6c0-1.9-1-3.5-2.4-4.1C64,16.6,65,15,65,13.2z"/>
						<path class="st0" d="M61,36H12c-2.2,0-4,2-4,4.5v8.6c0,2.5,1.8,4.5,4,4.5H61c2.2,0,4-2,4-4.5v-8.6C65,38,63.2,36,61,36z"/>
					</g>
					<g>
						<path class="st1" d="M66,13.2V4.5c0-3-2.5-5.5-5.5-5.5H4.5C1.5-1-1,1.5-1,4.5v8.6c0,1.9,0.9,3.5,2.4,4.5
							c-1.4,1-2.4,2.6-2.4,4.5v8.6c0,1.9,0.9,3.5,2.4,4.5C-0.1,36.3-1,38-1,39.8v8.6c0,3,2.5,5.5,5.5,5.5h55.9c3,0,5.5-2.5,5.5-5.5
							v-8.6c0-1.9-0.9-3.5-2.4-4.5c1.4-1,2.4-2.6,2.4-4.5v-8.6c0-1.9-0.9-3.5-2.4-4.5C65.1,16.7,66,15,66,13.2z M64,39.8v8.6
							c0,1.9-1.6,3.5-3.5,3.5H4.5C2.6,52,1,50.4,1,48.5v-8.6c0-1.9,1.6-3.5,3.5-3.5h55.9C62.4,36.3,64,37.9,64,39.8z M64,22.2v8.6
							c0,1.9-1.6,3.5-3.5,3.5H4.5c-1.9,0-3.5-1.6-3.5-3.5v-8.6c0-1.9,1.6-3.5,3.5-3.5h55.9C62.4,18.7,64,20.2,64,22.2z M64,13.2
							c0,1.9-1.6,3.5-3.5,3.5H4.5c-1.9,0-3.5-1.6-3.5-3.5V4.5C1,2.6,2.6,1,4.5,1h55.9C62.4,1,64,2.6,64,4.5V13.2z"/>
						<path class="st1" d="M8.1,4.9c-1.8,0-3.2,1.4-3.2,3.2s1.4,3.2,3.2,3.2c1.8,0,3.2-1.4,3.2-3.2S9.9,4.9,8.1,4.9z M8.1,9.3
							c-0.7,0-1.2-0.5-1.2-1.2s0.5-1.2,1.2-1.2c0.7,0,1.2,0.5,1.2,1.2S8.8,9.3,8.1,9.3z"/>
						<path class="st1" d="M15.5,4.9c-1.8,0-3.2,1.4-3.2,3.2s1.4,3.2,3.2,3.2c1.8,0,3.2-1.4,3.2-3.2S17.3,4.9,15.5,4.9z M15.5,9.3
							c-0.7,0-1.2-0.5-1.2-1.2s0.5-1.2,1.2-1.2c0.7,0,1.2,0.5,1.2,1.2S16.2,9.3,15.5,9.3z"/>
						<path class="st1" d="M8.1,29c1.8,0,3.2-1.4,3.2-3.2c0-1.8-1.4-3.2-3.2-3.2c-1.8,0-3.2,1.4-3.2,3.2C4.9,27.5,6.4,29,8.1,29z
							 M8.1,24.6c0.7,0,1.2,0.5,1.2,1.2c0,0.7-0.5,1.2-1.2,1.2c-0.7,0-1.2-0.5-1.2-1.2C6.9,25.1,7.5,24.6,8.1,24.6z"/>
						<path class="st1" d="M15.5,29c1.8,0,3.2-1.4,3.2-3.2c0-1.8-1.4-3.2-3.2-3.2c-1.8,0-3.2,1.4-3.2,3.2C12.3,27.5,13.7,29,15.5,29
							z M15.5,24.6c0.7,0,1.2,0.5,1.2,1.2c0,0.7-0.5,1.2-1.2,1.2c-0.7,0-1.2-0.5-1.2-1.2C14.3,25.1,14.8,24.6,15.5,24.6z"/>
						<path class="st1" d="M8.1,46.6c1.8,0,3.2-1.4,3.2-3.2s-1.4-3.2-3.2-3.2c-1.8,0-3.2,1.4-3.2,3.2S6.4,46.6,8.1,46.6z M8.1,42.2
							c0.7,0,1.2,0.5,1.2,1.2s-0.5,1.2-1.2,1.2c-0.7,0-1.2-0.5-1.2-1.2S7.5,42.2,8.1,42.2z"/>
						<path class="st1" d="M15.5,46.6c1.8,0,3.2-1.4,3.2-3.2s-1.4-3.2-3.2-3.2c-1.8,0-3.2,1.4-3.2,3.2S13.7,46.6,15.5,46.6z
							 M15.5,42.2c0.7,0,1.2,0.5,1.2,1.2s-0.5,1.2-1.2,1.2c-0.7,0-1.2-0.5-1.2-1.2S14.8,42.2,15.5,42.2z"/>
					</g>
				</g>
			</g>
		</g>
	</g>
</g>
</svg>
