<?xml version="1.0" encoding="utf-8"?>
<!-- Generator: Adobe Illustrator 21.0.0, SVG Export Plug-In . SVG Version: 6.00 Build 0)  -->
<svg version="1.1" id="图层_1" xmlns="http://www.w3.org/2000/svg" xmlns:xlink="http://www.w3.org/1999/xlink" x="0px" y="0px"
	 viewBox="0 0 67 20" style="enable-background:new 0 0 67 20;" xml:space="preserve">
<style type="text/css">
	.st0{fill:#333333;}
</style>
<title>Group Copy 15</title>
<desc>Created with Sketch.</desc>
<g>
	<path class="st0" d="M61.5,0H5.5C2.5,0,0,2.5,0,5.6v8.8C0,17.5,2.5,20,5.5,20h55.9c3,0,5.5-2.5,5.5-5.6V5.6C67,2.5,64.5,0,61.5,0z
		 M65,14.4c0,2-1.6,3.6-3.5,3.6H5.5C3.6,18,2,16.4,2,14.4V5.6C2,3.6,3.6,2,5.5,2h55.9C63.4,2,65,3.6,65,5.6V14.4z"/>
	<path class="st0" d="M9.1,6C7.4,6,5.9,7.5,5.9,9.2s1.4,3.2,3.2,3.2c1.8,0,3.2-1.5,3.2-3.2S10.9,6,9.1,6z M9.1,10.5
		c-0.7,0-1.2-0.6-1.2-1.2S8.5,8,9.1,8c0.7,0,1.2,0.6,1.2,1.2S9.8,10.5,9.1,10.5z"/>
	<path class="st0" d="M16.5,6c-1.8,0-3.2,1.5-3.2,3.2s1.4,3.2,3.2,3.2c1.8,0,3.2-1.5,3.2-3.2S18.3,6,16.5,6z M16.5,10.5
		c-0.7,0-1.2-0.6-1.2-1.2S15.8,8,16.5,8c0.7,0,1.2,0.6,1.2,1.2S17.2,10.5,16.5,10.5z"/>
</g>
</svg>
