<?xml version="1.0" encoding="utf-8"?>
<!-- Generator: Adobe Illustrator 21.0.0, SVG Export Plug-In . SVG Version: 6.00 Build 0)  -->
<svg version="1.1" id="图层_1" xmlns="http://www.w3.org/2000/svg" xmlns:xlink="http://www.w3.org/1999/xlink" x="0px" y="0px"
	 viewBox="0 0 68 12" style="enable-background:new 0 0 68 12;" xml:space="preserve">
<style type="text/css">
	.st0{fill:#666666;}
</style>
<title>Group 19</title>
<desc>Created with Sketch.</desc>
<path class="st0" d="M67,5H39.9C39.4,2.2,37,0,34,0s-5.4,2.2-5.9,5H1C0.4,5,0,5.4,0,6s0.4,1,1,1h27.1c0.5,2.8,2.9,5,5.9,5
	s5.4-2.2,5.9-5H67c0.6,0,1-0.4,1-1S67.6,5,67,5z M34,10c-2.2,0-4-1.8-4-4c0-2.2,1.8-4,4-4c2.2,0,4,1.8,4,4C38,8.2,36.2,10,34,10z"/>
</svg>
