<?xml version="1.0" encoding="utf-8"?>
<!-- Generator: Adobe Illustrator 21.0.0, SVG Export Plug-In . SVG Version: 6.00 Build 0)  -->
<svg version="1.1" id="图层_1" xmlns="http://www.w3.org/2000/svg" xmlns:xlink="http://www.w3.org/1999/xlink" x="0px" y="0px"
	 viewBox="0 0 12 47" style="enable-background:new 0 0 12 47;" xml:space="preserve">
<style type="text/css">
	.st0{fill:#666666;}
</style>
<title>Group 19</title>
<desc>Created with Sketch.</desc>
<path class="st0" d="M12,23c0-3-2.2-5.4-5-5.9V1c0-0.6-0.4-1-1-1S5,0.4,5,1v16.1C2.2,17.6,0,20,0,23s2.2,5.4,5,5.9V46
	c0,0.6,0.4,1,1,1s1-0.4,1-1V28.9C9.8,28.4,12,26,12,23z M6,27c-2.2,0-4-1.8-4-4c0-2.2,1.8-4,4-4c2.2,0,4,1.8,4,4
	C10,25.2,8.2,27,6,27z"/>
</svg>
