<svg id="图层_1" data-name="图层 1" xmlns="http://www.w3.org/2000/svg" viewBox="0 0 56 56"><defs><style>.cls-1{fill:#01a4ff;}</style></defs><title>未标题-3</title><path class="cls-1" d="M41.29,31.82V27.36a11.71,11.71,0,1,0-2,0v4.46a8.54,8.54,0,0,0-7.47,7.47H27.36a11.71,11.71,0,1,0,0,2h4.46a8.53,8.53,0,1,0,9.47-9.47ZM30.59,15.71a9.71,9.71,0,1,1,9.93,9.7h-.44A9.71,9.71,0,0,1,30.59,15.71ZM15.71,50a9.71,9.71,0,1,1,9.7-9.94v.46A9.71,9.71,0,0,1,15.71,50Zm24.59-3.17a6.54,6.54,0,0,1-6.52-6.3v-.46a6.53,6.53,0,0,1,6.29-6.29h.46a6.53,6.53,0,0,1-.23,13.06Z"/><path class="cls-1" d="M15.71,24.24a8.53,8.53,0,1,0-8.53-8.53A8.54,8.54,0,0,0,15.71,24.24Zm0-15.07a6.53,6.53,0,1,1-6.53,6.53A6.54,6.54,0,0,1,15.71,9.17Z"/></svg>