<?xml version="1.0" encoding="utf-8"?>
<!-- Generator: Adobe Illustrator 21.0.0, SVG Export Plug-In . SVG Version: 6.00 Build 0)  -->
<svg version="1.1" id="图层_1" xmlns="http://www.w3.org/2000/svg" xmlns:xlink="http://www.w3.org/1999/xlink" x="0px" y="0px"
	 viewBox="0 0 20 20" style="enable-background:new 0 0 20 20;" xml:space="preserve">
<style type="text/css">
	.st0{fill:#e8e8e8;}
	.st1{fill:#FFFFFF;}
</style>
<title>Group 7</title>
<desc>Created with Sketch.</desc>
<g id="BaaS系统项目录入界面" transform="translate(-312.000000, -529.000000)">
	<g id="Group-21" transform="translate(200.000000, 150.000000)">
		<g id="Group-19" transform="translate(112.000000, 379.000000)">
			<g id="Group-7">
				<circle id="Oval-2" class="st0" cx="10" cy="10" r="10"/>
				<g id="Path-4">
					<path class="st1" d="M8.3,14.9c-0.2,0-0.5-0.1-0.6-0.2l-4.1-3.5c-0.4-0.4-0.5-1-0.1-1.4c0.4-0.4,1-0.5,1.4-0.1l3.3,2.8l6.1-7.3
						c0.4-0.4,1-0.5,1.4-0.1c0.4,0.4,0.5,1,0.1,1.4L9,14.6C8.9,14.8,8.6,14.9,8.3,14.9C8.3,14.9,8.3,14.9,8.3,14.9z"/>
				</g>
			</g>
		</g>
	</g>
</g>
</svg>
