<?xml version="1.0" encoding="UTF-8"?>
<svg width="56px" height="42px" viewBox="0 0 56 42" version="1.1" xmlns="http://www.w3.org/2000/svg" xmlns:xlink="http://www.w3.org/1999/xlink">
    <!-- Generator: Sketch 50.2 (55047) - http://www.bohemiancoding.com/sketch -->
    <title>Page 1</title>
    <desc>Created with Sketch.</desc>
    <defs></defs>
    <g id="Page-1" stroke="none" stroke-width="1" fill="none" fill-rule="evenodd">
        <g id="首页-" transform="translate(-1249.000000, -890.000000)" stroke="#01A4FF" stroke-width="2">
            <g id="Page-1" transform="translate(1250.000000, 891.000000)">
                <path d="M18.65659,31.7647059 L34.8055965,31.7647059 C37.7139417,31.7647059 40.1213347,29.2234102 40.1213347,26.1532987 L40.1213347,5.61215201 C40.1213347,2.54129564 37.7139417,0 34.8055965,0 L5.31644374,0 C2.40739297,0 0,2.54129564 0,5.61215201 L0,26.1532987 C0,29.2234102 2.40739297,31.7647059 5.31644374,31.7647059 L10.0303337,31.7647059" id="Stroke-1"></path>
                <path d="M35.1093066,9.41176471 L19.0203133,9.41176471 C16.1046873,9.41176471 13.7917088,11.846375 13.7917088,14.809601 L13.7917088,34.6021637 C13.7917088,37.5661342 16.1046873,40 19.0203133,40 L48.6837316,40 C51.600065,40 53.9130435,37.5661342 53.9130435,34.6021637 L53.9130435,14.9160687 C53.9130435,11.846375 51.4996237,9.41176471 48.5832904,9.41176471 L43.4798837,9.41176471" id="Stroke-3"></path>
            </g>
        </g>
    </g>
</svg>