<svg id="图层_1" data-name="图层 1" xmlns="http://www.w3.org/2000/svg" viewBox="0 0 22 22"><defs><style>.cls-1{fill:#01a4ff;}</style></defs><title>未标题-3</title><path class="cls-1" d="M19.65,11h-6.3A2.35,2.35,0,0,0,11,13.35v2.4H9.37V15A2.35,2.35,0,0,0,7,12.63H6.25V11h2.4A2.35,2.35,0,0,0,11,8.65V2.35A2.35,2.35,0,0,0,8.65,0H2.35A2.35,2.35,0,0,0,0,2.35v6.3A2.35,2.35,0,0,0,2.35,11h2.4v1.63H4A2.35,2.35,0,0,0,1.63,15v3A2.35,2.35,0,0,0,4,20.37H7A2.35,2.35,0,0,0,9.37,18v-.77H11v2.4A2.35,2.35,0,0,0,13.35,22h6.3A2.35,2.35,0,0,0,22,19.65v-6.3A2.35,2.35,0,0,0,19.65,11ZM1.5,8.65V2.35a.85.85,0,0,1,.85-.85h6.3a.85.85,0,0,1,.85.85v6.3a.85.85,0,0,1-.85.85H2.35A.85.85,0,0,1,1.5,8.65ZM7.87,18a.85.85,0,0,1-.85.85H4A.85.85,0,0,1,3.13,18V15A.85.85,0,0,1,4,14.13H7a.85.85,0,0,1,.85.85ZM20.5,19.65a.85.85,0,0,1-.85.85h-6.3a.85.85,0,0,1-.85-.85v-6.3a.85.85,0,0,1,.85-.85h6.3a.85.85,0,0,1,.85.85Z"/><path class="cls-1" d="M15,9.37h3A2.35,2.35,0,0,0,20.37,7V4A2.35,2.35,0,0,0,18,1.63H15A2.35,2.35,0,0,0,12.63,4V7A2.35,2.35,0,0,0,15,9.37ZM14.13,4A.85.85,0,0,1,15,3.13h3a.85.85,0,0,1,.85.85V7a.85.85,0,0,1-.85.85H15A.85.85,0,0,1,14.13,7Z"/></svg>