<?xml version="1.0" encoding="utf-8"?>
<!-- Generator: Adobe Illustrator 21.0.0, SVG Export Plug-In . SVG Version: 6.00 Build 0)  -->
<svg version="1.1" id="图层_1" xmlns="http://www.w3.org/2000/svg" xmlns:xlink="http://www.w3.org/1999/xlink" x="0px" y="0px"
	 viewBox="0 0 48 28" style="enable-background:new 0 0 48 28;" xml:space="preserve">
<style type="text/css">
	.st0{fill:#FFFFFF;}
</style>
<title>Page 1 Copy</title>
<desc>Created with Sketch.</desc>
<g>
	<path class="st0" d="M4.9,26.9C4.8,27,4.7,27,4.6,27.1v-0.9h0.5v-0.4H4.6v-0.5h0.3V25H4.1c0.1-0.2,0.1-0.3,0.2-0.5H5v-0.4H4.4
		c0-0.1,0.1-0.2,0.1-0.4l-0.4-0.1c-0.1,0.5-0.2,1-0.5,1.4l0.3,0.2L4,25.1v0.2h0.2v0.5H3.7v0.4h0.5v0.9c0,0.1,0,0.1-0.1,0.2l0.2,0.3
		c0.3-0.1,0.5-0.2,0.8-0.4L4.9,26.9z"/>
	<path class="st0" d="M5.8,24.4c-0.1-0.2-0.2-0.4-0.4-0.7L5,23.9c0.2,0.3,0.3,0.5,0.4,0.7L5.8,24.4z"/>
	<path class="st0" d="M6.6,27.2c-0.2,0-0.3,0-0.5-0.1C6,27.1,5.9,27,5.8,26.9v-1.8H5.1v0.4h0.3v1.4c-0.1,0.1-0.3,0.3-0.4,0.5
		l0.2,0.3c0.2-0.3,0.3-0.5,0.4-0.5c0,0,0.1,0,0.1,0.1c0.1,0.1,0.2,0.2,0.4,0.3c0.2,0,0.3,0.1,0.5,0.1c0.1,0,0.3,0,0.4,0h0.6l0.1-0.4
		c-0.2,0-0.4,0-0.7,0C6.9,27.3,6.7,27.3,6.6,27.2z"/>
	<path class="st0" d="M6.6,23.6c0,0.2-0.1,0.3-0.1,0.5H5.9v0.4h0.4c-0.1,0.3-0.2,0.6-0.4,0.8L6,25.6h0.7v0.4H5.9v0.4h0.8v0.7h0.4
		v-0.7h0.6v-0.4H7.1v-0.4h0.5v-0.4H7.1v-0.6H6.7v0.6H6.4c0.1-0.2,0.2-0.5,0.3-0.8h0.9v-0.4H6.8c0-0.1,0.1-0.2,0.1-0.4L6.6,23.6z"/>
	<path class="st0" d="M10,24.2h1.1c0,0.2-0.1,0.4-0.2,0.6h-0.8v3h0.4v-0.2h1.5v0.2h0.4v-3h-1.1c0.1-0.2,0.1-0.4,0.2-0.6h1.1v-0.4H10
		V24.2z M12.1,27.1h-1.5v-0.8h1.5V27.1z M12.1,25.2v0.8h-1.5v-0.8H12.1z"/>
	<path class="st0" d="M8.6,25.4l0.1,0.4c0.1-0.2,0.3-0.3,0.4-0.5v2.4h0.4v-3c0.2-0.3,0.3-0.6,0.4-0.9l-0.4-0.2
		C9.3,24.3,9,24.9,8.6,25.4z"/>
	<path class="st0" d="M14.8,25.4v-0.2h0.6v-0.4h-0.6v-0.6c0.2,0,0.4-0.1,0.6-0.1l-0.1-0.4c-0.5,0.1-1,0.2-1.5,0.3l0.1,0.4
		c0.2,0,0.4,0,0.6-0.1v0.6h-0.7v0.4h0.6c-0.2,0.4-0.4,0.8-0.8,1.2l0.2,0.5c0.3-0.3,0.5-0.7,0.6-1.1v1.9h0.4v-1.9
		c0.1,0.1,0.3,0.3,0.5,0.6l0.2-0.4C15.3,25.7,15,25.5,14.8,25.4z"/>
	<path class="st0" d="M16.7,24.5c-0.2-0.2-0.5-0.4-0.8-0.6l-0.3,0.3c0.3,0.2,0.6,0.4,0.8,0.6L16.7,24.5z"/>
	<path class="st0" d="M16.3,25.9l0.3-0.3c-0.2-0.2-0.5-0.5-0.8-0.7l-0.3,0.3C15.9,25.4,16.1,25.7,16.3,25.9z"/>
	<polygon class="st0" points="17.3,26 17.3,23.6 16.9,23.6 16.9,26.1 15.5,26.3 15.5,26.7 16.9,26.5 16.9,27.7 17.3,27.7 17.3,26.5 
		17.7,26.4 17.6,26 	"/>
	<path class="st0" d="M19.5,24.8H20v-0.4h-0.4v-0.8h-0.4v0.8h-0.5v0.4h0.5v1c-0.2,0.1-0.4,0.1-0.6,0.2l0.1,0.4
		c0.2-0.1,0.3-0.1,0.5-0.2v0.9c0,0.1-0.1,0.2-0.2,0.2c-0.1,0-0.2,0-0.3,0l0.1,0.4h0.4c0.3,0,0.4-0.2,0.4-0.4V26
		c0.2-0.1,0.3-0.1,0.4-0.2v-0.4c-0.1,0.1-0.3,0.2-0.4,0.2V24.8z"/>
	<path class="st0" d="M22.4,25.6v-0.4h-0.9v-0.6h1v-0.4h-1v-0.6h-0.4v0.6h-1v0.4h1v0.6h-0.9v0.4h0.2c0.1,0.4,0.4,0.8,0.7,1.2
		c-0.3,0.2-0.7,0.4-1.1,0.6l0.2,0.3c0.5-0.2,0.9-0.4,1.2-0.6c0.3,0.2,0.7,0.4,1.1,0.6l0.2-0.3c-0.4-0.2-0.7-0.3-1-0.5
		C22,26.5,22.3,26.1,22.4,25.6z M21.4,26.6c-0.3-0.3-0.5-0.6-0.6-0.9H22C21.8,26,21.7,26.3,21.4,26.6z"/>
	<polygon class="st0" points="27.5,24.2 29.5,24.2 29.5,23.8 27,23.8 27,27.6 29.6,27.6 29.6,27.1 27.5,27.1 	"/>
	<path class="st0" d="M25.6,27.5l0.4,0.2c0.2-0.5,0.5-0.9,0.6-1.5l-0.4-0.1C26.1,26.6,25.9,27,25.6,27.5z"/>
	<path class="st0" d="M25.6,24c0.4,0.2,0.7,0.5,0.9,0.7l0.3-0.3c-0.2-0.2-0.5-0.4-0.9-0.7L25.6,24z"/>
	<path class="st0" d="M26.7,25.4c-0.2-0.2-0.5-0.4-0.8-0.6l-0.3,0.3c0.3,0.2,0.6,0.4,0.8,0.6L26.7,25.4z"/>
	<path class="st0" d="M33.4,27.2c-0.2,0-0.3,0-0.5-0.1c-0.1-0.1-0.2-0.2-0.3-0.3v-1.8h-0.7v0.4h0.3v1.4c-0.1,0.1-0.3,0.3-0.4,0.5
		l0.2,0.3c0.2-0.3,0.3-0.5,0.4-0.5c0,0,0.1,0,0.1,0.1c0.1,0.1,0.2,0.2,0.4,0.3c0.2,0,0.3,0.1,0.5,0.1c0.1,0,0.3,0,0.4,0h0.6l0.1-0.4
		c-0.2,0-0.4,0-0.7,0C33.8,27.3,33.6,27.3,33.4,27.2z"/>
	<path class="st0" d="M32.7,24.4c-0.1-0.2-0.2-0.4-0.4-0.7l-0.3,0.2c0.2,0.3,0.3,0.5,0.4,0.7L32.7,24.4z"/>
	<path class="st0" d="M33.4,23.6c0,0.2-0.1,0.3-0.1,0.5h-0.5v0.4h0.4c-0.1,0.3-0.2,0.6-0.4,0.8l0.1,0.3h0.7v0.4h-0.8v0.4h0.8v0.7H34
		v-0.7h0.6v-0.4H34v-0.4h0.5v-0.4H34v-0.6h-0.4v0.6h-0.3c0.1-0.2,0.2-0.5,0.3-0.8h0.9v-0.4h-0.8c0-0.1,0.1-0.2,0.1-0.4L33.4,23.6z"
		/>
	<path class="st0" d="M31.8,26.9c-0.1,0.1-0.2,0.2-0.3,0.2v-0.9h0.5v-0.4h-0.5v-0.5h0.3V25H31c0.1-0.2,0.1-0.3,0.2-0.5h0.7v-0.4
		h-0.6c0-0.1,0.1-0.2,0.1-0.4l-0.4-0.1c-0.1,0.5-0.2,1-0.5,1.4l0.3,0.2l0.1-0.2v0.2h0.2v0.5h-0.5v0.4h0.5v0.9c0,0.1,0,0.1-0.1,0.2
		l0.2,0.3c0.3-0.1,0.5-0.2,0.8-0.4L31.8,26.9z"/>
	<path class="st0" d="M39,27.2c-0.1,0-0.2-0.1-0.3-0.3c0-0.1-0.1-0.2-0.1-0.3c0.3-0.4,0.5-0.9,0.7-1.4L38.9,25
		c-0.1,0.4-0.3,0.8-0.5,1.1c0-0.1,0-0.1-0.1-0.2c-0.1-0.3-0.1-0.7-0.2-1.2h1.3v-0.4H39l0.2-0.2c-0.1-0.2-0.3-0.3-0.5-0.5l-0.3,0.3
		c0.2,0.1,0.3,0.3,0.5,0.4h-0.7c0-0.2,0-0.4,0-0.6h-0.4c0,0.2,0,0.4,0,0.6h-1.8v1.5c0,0.7-0.2,1.3-0.4,1.7l0.3,0.3
		c0.3-0.5,0.5-1.1,0.5-2v0H37c0,0.5,0,0.8,0,0.9c0,0.1-0.1,0.1-0.2,0.2c-0.1,0-0.3,0-0.4,0l0.1,0.4c0.1,0,0.3,0,0.4,0
		c0.2,0,0.4-0.1,0.5-0.3c0.1-0.2,0.1-0.7,0.1-1.5h-1.1v-0.6h1.4c0,0.5,0.1,1,0.2,1.3c0,0.2,0.1,0.4,0.2,0.5
		c-0.3,0.4-0.7,0.6-1.1,0.8l0.2,0.4c0.4-0.2,0.7-0.4,1-0.8c0.1,0.1,0.1,0.2,0.2,0.3c0.2,0.3,0.4,0.4,0.6,0.4c0.2,0,0.4-0.3,0.5-0.9
		l-0.4-0.2C39.2,27,39.1,27.2,39,27.2z"/>
	<path class="st0" d="M43.4,24.8v-0.3h-1.1c0-0.1,0.1-0.1,0.1-0.2l-0.4,0c-0.1,0.3-0.4,0.6-0.8,0.8l0.2,0.3c0.2-0.1,0.3-0.2,0.4-0.3
		c0.1,0.1,0.2,0.2,0.4,0.3c-0.3,0.1-0.7,0.2-1.1,0.3l0.2,0.3c0.5-0.1,0.9-0.2,1.2-0.4c0.3,0.2,0.7,0.3,1.1,0.4l0.2-0.3
		c-0.4-0.1-0.7-0.2-0.9-0.3C43.2,25.2,43.3,25,43.4,24.8z M42.6,25.2c-0.2-0.1-0.4-0.2-0.5-0.4c0,0,0,0,0,0H43
		C42.9,24.9,42.8,25,42.6,25.2z"/>
	<path class="st0" d="M42.2,25.8L42,26c0.3,0.1,0.7,0.2,1,0.4l0.2-0.3C42.9,26,42.5,25.9,42.2,25.8z"/>
	<path class="st0" d="M40.6,27.7h0.4v-0.2h2.9v0.2h0.4v-3.9h-3.7V27.7z M41.1,24.2h2.9v3h-2.9V24.2z"/>
	<path class="st0" d="M41.6,26.7c0.6,0.1,1.2,0.3,1.7,0.5l0.1-0.3c-0.5-0.2-1.1-0.3-1.7-0.4L41.6,26.7z"/>
	<path class="st0" d="M43.7,1.4V7c-1.3-1.3-2.9-1.9-4.6-1.9c-1.6,0-3,0.4-4.1,1.2l3.2,2.9c0.5-0.3,1.1-0.4,1.8-0.4
		c1.1,0,2,0.4,2.7,1.2c0.7,0.8,1.1,1.8,1.1,3c0,1.3-0.4,2.3-1.1,3.1c-0.8,0.8-1.7,1.2-2.8,1.2c-1.2,0-2.1-0.4-2.8-1.2
		c-0.7-0.8-1.1-1.8-1.1-2.9c0-0.8,0.4-1.8,0.7-2.4c0,0-3.3-3.2-5.8-4.5c-1.9-0.9-3.1-1.1-4.8-1.1c-2.3,0-4.3,0.9-5.8,2.5
		c-0.2,0.2-0.6,0.8-0.9,1l3.2,2.8c0.2-0.3,0.6-0.8,0.8-1c0.8-0.8,1.8-1.1,3-1.1c3.1-0.2,5.1,2.2,5.4,2.5c-0.1,0.4-0.1,0.9-0.1,1.4
		c0,2.3,0.7,4.1,2.1,5.6c1.4,1.5,3.1,2.3,5.2,2.3c2,0,9.1,0,9.1,0V0L43.7,1.4z"/>
	<path class="st0" d="M26.2,17.4c-0.5,0-1-0.1-1.4-0.2c-0.5-0.2-1.2-0.5-2-1.4c-0.1-0.1-0.1-0.1-0.2-0.1l-8.4-8.1
		c-0.9-0.8-1.6-1.3-1.8-1.4c-1-0.6-2.2-0.9-3.6-0.9c-1.8,0-3.3,0.6-4.6,1.9v-7L0,1.6v15.9l3.6,3.6c2.1,0,4.5,0,5.5,0
		c2.1,0,3.9-0.8,5.3-2.3c0.9-1,1.5-2.1,1.8-3.4l3.9,3.5c1.5,1.5,3.4,2.2,5.8,2.2c1.7,0,3.6-0.5,4.6-1.1l-2.1-3.3
		C28,16.9,27.4,17.4,26.2,17.4z M11,16.3c-0.7,0.8-1.7,1.2-2.8,1.2c-1.1,0-2-0.4-2.8-1.2c-0.8-0.8-1.1-1.8-1.1-3.1
		c0-1.2,0.4-2.2,1.1-3c0.7-0.8,1.7-1.2,2.7-1.2c1.1,0,2.1,0.4,2.8,1.2c0.8,0.8,1.1,1.8,1.1,3.1C12.1,14.5,11.7,15.5,11,16.3z"/>
</g>
</svg>
