<svg id="图层_1" data-name="图层 1" xmlns="http://www.w3.org/2000/svg" viewBox="0 0 56 56"><defs><style>.cls-1{fill:#01a4ff;}</style></defs><title>未标题-3</title><path class="cls-1" d="M50.5,10a5,5,0,0,0-5-5h-35a5,5,0,0,0-5,5V46a5,5,0,0,0,5,5H40.64l0,0a1,1,0,0,0,.53-.26l9-9a1,1,0,0,0,.28-.69h0ZM7.5,46V10a3,3,0,0,1,3-3h35a3,3,0,0,1,3,3V40h-8a1,1,0,0,0-1,1v8h-29A3,3,0,0,1,7.5,46Zm34,1.28V42h5.21Z"/><path class="cls-1" d="M35.51,16.5H15a1,1,0,0,0,0,2H35.51a1,1,0,0,0,0-2Z"/><path class="cls-1" d="M32,28.5H15a1,1,0,0,0,0,2H32a1,1,0,0,0,0-2Z"/></svg>