<svg id="图层_1" data-name="图层 1" xmlns="http://www.w3.org/2000/svg" viewBox="0 0 56 56"><defs><style>.cls-1{fill:#01a4ff;}</style></defs><title>未标题-3</title><path class="cls-1" d="M2,34.15V13.61A4.53,4.53,0,0,1,6.36,9H35.85a4.53,4.53,0,0,1,4.32,4.61V34.15a4.53,4.53,0,0,1-4.32,4.61H19.7v2H35.85a6.48,6.48,0,0,0,6.32-6.61V13.61A6.48,6.48,0,0,0,35.85,7H6.36A6.48,6.48,0,0,0,0,13.61V34.15a6.48,6.48,0,0,0,6.32,6.61h4.71v-2H6.36A4.53,4.53,0,0,1,2,34.15Z"/><path class="cls-1" d="M49.63,16.41h-5.1v2h5.1A4.42,4.42,0,0,1,54,22.92V42.6A4.32,4.32,0,0,1,49.73,47H20.06a4.32,4.32,0,0,1-4.23-4.4V22.81a4.32,4.32,0,0,1,4.23-4.4H36.15v-2H20.06a6.32,6.32,0,0,0-6.23,6.4V42.6A6.32,6.32,0,0,0,20.06,49H49.73A6.32,6.32,0,0,0,56,42.6V22.92A6.43,6.43,0,0,0,49.63,16.41Z"/></svg>