<?xml version="1.0" encoding="utf-8"?>
<!-- Generator: Adobe Illustrator 21.0.0, SVG Export Plug-In . SVG Version: 6.00 Build 0)  -->
<svg version="1.1" id="图层_1" xmlns="http://www.w3.org/2000/svg" xmlns:xlink="http://www.w3.org/1999/xlink" x="0px" y="0px"
	 viewBox="0 0 67 55" style="enable-background:new 0 0 67 55;" xml:space="preserve">
<style type="text/css">
	.st0{fill:#01A4FF;}
</style>
<title>Group</title>
<desc>Created with Sketch.</desc>
<g>
	<path class="st0" d="M66.5,14.2V5.5c0-2.8-2.3-5-5-5H5.5c-2.8,0-5,2.2-5,5v8.6c0,2,1.2,3.7,2.9,4.5c-1.7,0.8-2.9,2.5-2.9,4.5v8.6
		c0,2,1.2,3.7,2.9,4.5c-1.7,0.8-2.9,2.5-2.9,4.5v8.6c0,2.8,2.3,5,5,5h55.9c2.8,0,5-2.2,5-5v-8.6c0-2-1.2-3.7-2.9-4.5
		c1.7-0.8,2.9-2.5,2.9-4.5v-8.6c0-2-1.2-3.7-2.9-4.5C65.3,17.9,66.5,16.1,66.5,14.2z M65.5,40.8v8.6c0,2.2-1.8,4-4,4H5.5
		c-2.2,0-4-1.8-4-4v-8.6c0-2.2,1.8-4,4-4h55.9C63.7,36.8,65.5,38.6,65.5,40.8z M65.5,23.2v8.6c0,2.2-1.8,4-4,4H5.5c-2.2,0-4-1.8-4-4
		v-8.6c0-2.2,1.8-4,4-4h55.9C63.7,19.2,65.5,21,65.5,23.2z M61.5,18.2H5.5c-2.2,0-4-1.8-4-4V5.5c0-2.2,1.8-4,4-4h55.9
		c2.2,0,4,1.8,4,4v8.6C65.5,16.4,63.7,18.2,61.5,18.2z"/>
	<path class="st0" d="M9.1,6.4c-1.5,0-2.7,1.2-2.7,2.7s1.2,2.7,2.7,2.7c1.5,0,2.7-1.2,2.7-2.7S10.6,6.4,9.1,6.4z M9.1,10.8
		c-0.9,0-1.7-0.8-1.7-1.7s0.8-1.7,1.7-1.7c0.9,0,1.7,0.8,1.7,1.7S10.1,10.8,9.1,10.8z"/>
	<path class="st0" d="M16.5,6.4c-1.5,0-2.7,1.2-2.7,2.7s1.2,2.7,2.7,2.7c1.5,0,2.7-1.2,2.7-2.7S18,6.4,16.5,6.4z M16.5,10.8
		c-0.9,0-1.7-0.8-1.7-1.7s0.8-1.7,1.7-1.7c0.9,0,1.7,0.8,1.7,1.7S17.5,10.8,16.5,10.8z"/>
	<path class="st0" d="M9.1,29.5c1.5,0,2.7-1.2,2.7-2.7c0-1.5-1.2-2.7-2.7-2.7c-1.5,0-2.7,1.2-2.7,2.7C6.4,28.3,7.6,29.5,9.1,29.5z
		 M9.1,25.1c0.9,0,1.7,0.8,1.7,1.7c0,0.9-0.8,1.7-1.7,1.7c-0.9,0-1.7-0.8-1.7-1.7C7.4,25.8,8.2,25.1,9.1,25.1z"/>
	<path class="st0" d="M16.5,29.5c1.5,0,2.7-1.2,2.7-2.7c0-1.5-1.2-2.7-2.7-2.7c-1.5,0-2.7,1.2-2.7,2.7C13.8,28.3,15,29.5,16.5,29.5z
		 M16.5,25.1c0.9,0,1.7,0.8,1.7,1.7c0,0.9-0.8,1.7-1.7,1.7c-0.9,0-1.7-0.8-1.7-1.7C14.8,25.8,15.6,25.1,16.5,25.1z"/>
	<path class="st0" d="M9.1,47.1c1.5,0,2.7-1.2,2.7-2.7s-1.2-2.7-2.7-2.7c-1.5,0-2.7,1.2-2.7,2.7S7.6,47.1,9.1,47.1z M9.1,42.7
		c0.9,0,1.7,0.8,1.7,1.7s-0.8,1.7-1.7,1.7c-0.9,0-1.7-0.8-1.7-1.7S8.2,42.7,9.1,42.7z"/>
	<path class="st0" d="M16.5,47.1c1.5,0,2.7-1.2,2.7-2.7s-1.2-2.7-2.7-2.7c-1.5,0-2.7,1.2-2.7,2.7S15,47.1,16.5,47.1z M16.5,42.7
		c0.9,0,1.7,0.8,1.7,1.7s-0.8,1.7-1.7,1.7c-0.9,0-1.7-0.8-1.7-1.7S15.6,42.7,16.5,42.7z"/>
</g>
</svg>
