<?xml version="1.0" encoding="utf-8"?>
<!-- Generator: Adobe Illustrator 21.0.0, SVG Export Plug-In . SVG Version: 6.00 Build 0)  -->
<svg version="1.1" id="图层_1" xmlns="http://www.w3.org/2000/svg" xmlns:xlink="http://www.w3.org/1999/xlink" x="0px" y="0px"
	 viewBox="0 0 46 38" style="enable-background:new 0 0 46 38;" xml:space="preserve">
<style type="text/css">
	.st0{fill:#888889;}
</style>
<title>Group</title>
<desc>Created with Sketch.</desc>
<g>
	<path class="st0" d="M45.5,9.9V4.1c0-2-1.6-3.6-3.6-3.6H4.1c-2,0-3.6,1.6-3.6,3.6v5.9c0,1.3,0.7,2.4,1.8,3.1
		c-1.1,0.6-1.8,1.8-1.8,3.1v5.9c0,1.3,0.7,2.4,1.8,3.1c-1.1,0.6-1.8,1.8-1.8,3.1v5.9c0,2,1.6,3.6,3.6,3.6h37.9c2,0,3.6-1.6,3.6-3.6
		v-5.9c0-1.3-0.7-2.4-1.8-3.1c1.1-0.6,1.8-1.8,1.8-3.1v-5.9c0-1.3-0.7-2.4-1.8-3.1C44.8,12.4,45.5,11.2,45.5,9.9z M44.5,28.1v5.9
		c0,1.4-1.2,2.6-2.6,2.6H4.1c-1.4,0-2.6-1.2-2.6-2.6v-5.9c0-1.4,1.2-2.6,2.6-2.6h37.9C43.3,25.5,44.5,26.7,44.5,28.1z M44.5,16.1
		v5.9c0,1.4-1.2,2.6-2.6,2.6H4.1c-1.4,0-2.6-1.2-2.6-2.6v-5.9c0-1.4,1.2-2.6,2.6-2.6h37.9C43.3,13.5,44.5,14.7,44.5,16.1z
		 M41.9,12.5H4.1c-1.4,0-2.6-1.2-2.6-2.6V4.1c0-1.4,1.2-2.6,2.6-2.6h37.9c1.4,0,2.6,1.2,2.6,2.6v5.9C44.5,11.3,43.3,12.5,41.9,12.5z
		"/>
	<path class="st0" d="M6.5,4.5c-1.1,0-2,0.9-2,2s0.9,2,2,2c1.1,0,2-0.9,2-2S7.6,4.5,6.5,4.5z M6.5,7.5c-0.6,0-1-0.4-1-1s0.4-1,1-1
		c0.6,0,1,0.4,1,1S7.1,7.5,6.5,7.5z"/>
	<path class="st0" d="M11.5,4.5c-1.1,0-2,0.9-2,2s0.9,2,2,2c1.1,0,2-0.9,2-2S12.6,4.5,11.5,4.5z M11.5,7.5c-0.6,0-1-0.4-1-1
		s0.4-1,1-1c0.6,0,1,0.4,1,1S12.1,7.5,11.5,7.5z"/>
	<path class="st0" d="M6.5,16.5c-1.1,0-2,0.9-2,2s0.9,2,2,2c1.1,0,2-0.9,2-2S7.6,16.5,6.5,16.5z M6.5,19.5c-0.6,0-1-0.4-1-1
		s0.4-1,1-1c0.6,0,1,0.4,1,1S7.1,19.5,6.5,19.5z"/>
	<path class="st0" d="M11.5,16.5c-1.1,0-2,0.9-2,2s0.9,2,2,2c1.1,0,2-0.9,2-2S12.6,16.5,11.5,16.5z M11.5,19.5c-0.6,0-1-0.4-1-1
		s0.4-1,1-1c0.6,0,1,0.4,1,1S12.1,19.5,11.5,19.5z"/>
	<path class="st0" d="M6.5,28.5c-1.1,0-2,0.9-2,2s0.9,2,2,2c1.1,0,2-0.9,2-2S7.6,28.5,6.5,28.5z M6.5,31.5c-0.6,0-1-0.4-1-1
		s0.4-1,1-1c0.6,0,1,0.4,1,1S7.1,31.5,6.5,31.5z"/>
	<path class="st0" d="M11.5,28.5c-1.1,0-2,0.9-2,2s0.9,2,2,2c1.1,0,2-0.9,2-2S12.6,28.5,11.5,28.5z M11.5,31.5c-0.6,0-1-0.4-1-1
		s0.4-1,1-1c0.6,0,1,0.4,1,1S12.1,31.5,11.5,31.5z"/>
</g>
</svg>
