<svg id="图层_1" data-name="图层 1" xmlns="http://www.w3.org/2000/svg" viewBox="0 0 56 56"><defs><style>.cls-1{fill:#01a4ff;}</style></defs><title>未标题-3</title><path class="cls-1" d="M51,34H42.08a4,4,0,0,0-3.93,3.35l-8.56-5.32-.09,0V22.94a9.5,9.5,0,1,0-2-.05v9.19l-8.88,5.51A9.4,9.4,0,1,0,20,42.45a9.31,9.31,0,0,0-.51-3l9.09-5.65,9.13,5.67a1,1,0,0,0,.39.13v7.23a4,4,0,0,0,4,4H51a4,4,0,0,0,4-4V38A4,4,0,0,0,51,34ZM10.5,49.88A7.43,7.43,0,1,1,18,42.45,7.47,7.47,0,0,1,10.5,49.88ZM21.24,13.55A7.5,7.5,0,1,1,28.73,21,7.47,7.47,0,0,1,21.24,13.55ZM53,46.81a2,2,0,0,1-2,2H42.08a2,2,0,0,1-2-2V38a2,2,0,0,1,2-2H51a2,2,0,0,1,2,2Z"/></svg>