<svg id="图层_1" data-name="图层 1" xmlns="http://www.w3.org/2000/svg" viewBox="0 0 56 56"><defs><style>.cls-1{fill:#01a4ff;}</style></defs><title>未标题-3</title><path class="cls-1" d="M50.74,13.44a3.89,3.89,0,0,0-4-3.83,32.33,32.33,0,0,1-4.82-.41,30.89,30.89,0,0,1-11.7-4.42,4.5,4.5,0,0,0-.95-.46,4,4,0,0,0-3.52.49A30.62,30.62,0,0,1,12.58,9.4c-.74.08-1.52.11-2.27.15l-1.39.08a3.84,3.84,0,0,0-3.59,3.49c-.06.73-.09,1.46-.12,2.2l-.06,1.14v.06A44.84,44.84,0,0,0,6.76,28.14a37.34,37.34,0,0,0,8.42,15.37,33.34,33.34,0,0,0,11.07,8,4,4,0,0,0,1.77.41,4,4,0,0,0,1.67-.37,33.55,33.55,0,0,0,12-9,39.11,39.11,0,0,0,8.93-22A42.52,42.52,0,0,0,50.74,13.44Zm-2.07,6.89A36.66,36.66,0,0,1,40.2,41.21,31.56,31.56,0,0,1,28.87,49.7a2,2,0,0,1-1.77,0,31.42,31.42,0,0,1-10.44-7.52,35.36,35.36,0,0,1-8-14.55A42.81,42.81,0,0,1,7.15,16.52L7.2,15.4c0-.71.07-1.42.12-2.11a1.84,1.84,0,0,1,1.73-1.67l1.36-.07c.78,0,1.58-.07,2.38-.16a32.64,32.64,0,0,0,14-4.89,2,2,0,0,1,1.81-.29,2.55,2.55,0,0,1,.52.26A32.89,32.89,0,0,0,41.6,11.17a34.35,34.35,0,0,0,5.11.43,1.93,1.93,0,0,1,2,2A40.61,40.61,0,0,1,48.67,20.33Z"/><path class="cls-1" d="M36.95,20.28l-12,11.84-6-5.92a1,1,0,1,0-1.4,1.43l6.73,6.61a1,1,0,0,0,.22.14l.1.07a1,1,0,0,0,.75,0l.09-.06a1,1,0,0,0,.23-.15L38.35,21.7a1,1,0,0,0-1.4-1.42Z"/></svg>