<svg id="图层_1" data-name="图层 1" xmlns="http://www.w3.org/2000/svg" viewBox="0 0 56 56"><defs><style>.cls-1{fill:#01a4ff;}</style></defs><title>未标题-3</title><path class="cls-1" d="M55.17,17.17v-7A4.66,4.66,0,0,0,50.53,5.5H5.47A4.66,4.66,0,0,0,.83,10.16v7a4.64,4.64,0,0,0,1.8,3.66,4.64,4.64,0,0,0-1.8,3.66v7a4.64,4.64,0,0,0,1.8,3.66,4.64,4.64,0,0,0-1.8,3.66v7A4.66,4.66,0,0,0,5.47,50.5H50.53a4.66,4.66,0,0,0,4.65-4.66v-7a4.64,4.64,0,0,0-1.8-3.66,4.64,4.64,0,0,0,1.8-3.66v-7a4.64,4.64,0,0,0-1.8-3.66A4.64,4.64,0,0,0,55.17,17.17Zm-2,28.67a2.66,2.66,0,0,1-2.65,2.66H5.47a2.66,2.66,0,0,1-2.65-2.66v-7a2.66,2.66,0,0,1,2.65-2.66H50.53a2.66,2.66,0,0,1,2.65,2.66Zm0-14.33a2.66,2.66,0,0,1-2.65,2.66H5.47a2.66,2.66,0,0,1-2.65-2.66v-7a2.66,2.66,0,0,1,2.65-2.66H50.53a2.66,2.66,0,0,1,2.65,2.66Zm0-14.33a2.66,2.66,0,0,1-2.65,2.66H5.47a2.66,2.66,0,0,1-2.65-2.66v-7A2.66,2.66,0,0,1,5.47,7.5H50.53a2.66,2.66,0,0,1,2.65,2.66Z"/><path class="cls-1" d="M8.37,10.28a2.79,2.79,0,1,0,2.79,2.79A2.79,2.79,0,0,0,8.37,10.28Zm0,3.58a.79.79,0,1,1,.79-.79A.79.79,0,0,1,8.37,13.86Z"/><path class="cls-1" d="M14.32,10.28a2.79,2.79,0,1,0,2.79,2.79A2.79,2.79,0,0,0,14.32,10.28Zm0,3.58a.79.79,0,1,1,.79-.79A.79.79,0,0,1,14.32,13.86Z"/><path class="cls-1" d="M8.37,24.61a2.79,2.79,0,1,0,2.79,2.79A2.79,2.79,0,0,0,8.37,24.61Zm0,3.58a.79.79,0,1,1,.79-.79A.79.79,0,0,1,8.37,28.19Z"/><path class="cls-1" d="M14.32,24.61A2.79,2.79,0,1,0,17.1,27.4,2.79,2.79,0,0,0,14.32,24.61Zm0,3.58a.79.79,0,1,1,.79-.79A.79.79,0,0,1,14.32,28.19Z"/><path class="cls-1" d="M8.37,38.94a2.79,2.79,0,1,0,2.79,2.79A2.79,2.79,0,0,0,8.37,38.94Zm0,3.58a.79.79,0,1,1,.79-.79A.79.79,0,0,1,8.37,42.53Z"/><path class="cls-1" d="M14.32,38.94a2.79,2.79,0,1,0,2.79,2.79A2.79,2.79,0,0,0,14.32,38.94Zm0,3.58a.79.79,0,1,1,.79-.79A.79.79,0,0,1,14.32,42.53Z"/></svg>