<svg id="图层_1" data-name="图层 1" xmlns="http://www.w3.org/2000/svg" viewBox="0 0 56 56"><defs><style>.cls-1{fill:#01a4ff;}</style></defs><title>未标题-3</title><path class="cls-1" d="M45.5,5h-35a5,5,0,0,0-5,5V46a5,5,0,0,0,5,5h35a5,5,0,0,0,5-5V10A5,5,0,0,0,45.5,5Zm-9,2V19.48A.52.52,0,0,1,36,20H21a.52.52,0,0,1-.51-.52V7Zm12,39a3,3,0,0,1-3,3h-35a3,3,0,0,1-3-3V10a3,3,0,0,1,3-3h8V19.48A2.52,2.52,0,0,0,21,22H36a2.52,2.52,0,0,0,2.51-2.52V7h7a3,3,0,0,1,3,3Z"/><path class="cls-1" d="M33,17.5a1,1,0,0,0,1-1v-6a1,1,0,0,0-2,0v6A1,1,0,0,0,33,17.5Z"/><path class="cls-1" d="M27,34.5H13a1,1,0,0,0,0,2H27a1,1,0,0,0,0-2Z"/><path class="cls-1" d="M20.52,41.5H13a1,1,0,0,0,0,2h7.52a1,1,0,0,0,0-2Z"/></svg>