<svg id="图层_1" data-name="图层 1" xmlns="http://www.w3.org/2000/svg" viewBox="0 0 56 56"><defs><style>.cls-1{fill:#01a4ff;}</style></defs><title>未标题-3</title><path class="cls-1" d="M52.08,15.37a3,3,0,0,0-2.19-1.06,3.74,3.74,0,0,0-2.75,1.15l-2.32,2.33A4.4,4.4,0,0,1,41.71,19h0a4.35,4.35,0,0,1-3.1-7.44l2.33-2.33a3.46,3.46,0,0,0,.93-3.77c-.65-1.56-2.37-2.32-4.52-2A13.5,13.5,0,0,0,29.85,7.3,13.64,13.64,0,0,0,26,18.65L7.21,37.42a8.31,8.31,0,0,0,5.86,14.19h0A8.3,8.3,0,0,0,19,49.18L37.74,30.41a13.88,13.88,0,0,0,1.73.11A13.56,13.56,0,0,0,52.9,19,4.48,4.48,0,0,0,52.08,15.37Zm-1.15,3.36a11.56,11.56,0,0,1-11.45,9.79,11.81,11.81,0,0,1-1.92-.16L37,28.28l-19.5,19.5a6.29,6.29,0,0,1-4.44,1.85h0A6.32,6.32,0,0,1,8.63,38.84L28.12,19.35,28,18.84A11.63,11.63,0,0,1,31.26,8.72a11.51,11.51,0,0,1,6.4-3.25c1.2-.18,2.08.11,2.36.78a1.5,1.5,0,0,1-.5,1.59L37.2,10.16A6.33,6.33,0,0,0,41.71,21h0a6.41,6.41,0,0,0,4.52-1.82l2.32-2.32a1.67,1.67,0,0,1,1.25-.56,1,1,0,0,1,.75.36A2.6,2.6,0,0,1,50.93,18.73Z"/><path class="cls-1" d="M11.3,18.84l6.32,6.23,5.77-5.77-6.33-6.24L15.34,9.78l-7-5L3,10.14l5,7ZM8.59,7.4l5.21,3.72,1.57,3,5.19,5.18-2.94,2.94-5-4.94L9.35,15.56,5.63,10.35Z"/><path class="cls-1" d="M10.54,40.76a3.6,3.6,0,0,0,2.54,6.14h0a3.6,3.6,0,0,0,2.53-6.15A3.67,3.67,0,0,0,10.54,40.76Zm3.68,3.68a1.6,1.6,0,0,1-1.12.47h0A1.6,1.6,0,0,1,12,42.17a1.68,1.68,0,0,1,2.27,0A1.61,1.61,0,0,1,14.22,44.44Z"/><path class="cls-1" d="M40.68,34a3,3,0,0,0-2.14-.88h0A3,3,0,0,0,36.4,34l-4.49,4.49a3,3,0,0,0,0,4.29l8.32,8a6.21,6.21,0,0,0,4.37,1.81h0A6.2,6.2,0,0,0,49,42Zm6.91,15.38a4.19,4.19,0,0,1-2.95,1.23h0a4.21,4.21,0,0,1-3-1.24l-8.32-8a1,1,0,0,1,0-1.44l4.49-4.49a1,1,0,0,1,.72-.28h0a1,1,0,0,1,.74.3l8.32,8a4.2,4.2,0,0,1,0,5.93Z"/></svg>